HIERARCHY
ROOT RootJoint
{
    OFFSET   0.000000   0.000000   0.000000
    CHANNELS 6 Xposition Yposition Zposition Xrotation Yrotation Zrotation
    JOINT pelvis_lowerback
    {
        OFFSET   0.000000   0.093605   0.000000
        CHANNELS 3 Xrotation Yrotation Zrotation
        JOINT lowerback_torso
        {
            OFFSET   0.000000   0.100000   0.000000
            CHANNELS 3 Xrotation Yrotation Zrotation
            JOINT torso_head
            {
                OFFSET   0.000000   0.282350   0.000000
                CHANNELS 3 Xrotation Yrotation Zrotation
                End Site
                {
                    OFFSET   0.000000   0.192650   0.000000
                }
            }
            JOINT rTorso_Clavicle
            {
                OFFSET  -0.001000   0.157500   0.000000
                CHANNELS 3 Xrotation Yrotation Zrotation
                JOINT rShoulder
                {
                    OFFSET  -0.117647   0.000000   0.000000
                    CHANNELS 3 Xrotation Yrotation Zrotation
                    JOINT rElbow
                    {
                        OFFSET  -0.245000   0.000000   0.000000
                        CHANNELS 3 Xrotation Yrotation Zrotation
                        JOINT rWrist
                        {
                            OFFSET  -0.240000   0.000000   0.000000
                            CHANNELS 3 Xrotation Yrotation Zrotation
                            End Site
                            {
                                OFFSET  -0.116353  -0.002500   0.000000
                            }
                        }
                    }
                }
            }
            JOINT lTorso_Clavicle
            {
                OFFSET   0.001000   0.157500   0.000000
                CHANNELS 3 Xrotation Yrotation Zrotation
                JOINT lShoulder
                {
                    OFFSET   0.117647   0.000000   0.000000
                    CHANNELS 3 Xrotation Yrotation Zrotation
                    JOINT lElbow
                    {
                        OFFSET   0.245000   0.000000   0.000000
                        CHANNELS 3 Xrotation Yrotation Zrotation
                        JOINT lWrist
                        {
                            OFFSET   0.240000   0.000000   0.000000
                            CHANNELS 3 Xrotation Yrotation Zrotation
                            End Site
                            {
                                OFFSET   0.116353  -0.002500   0.000000
                            }
                        }
                    }
                }
            }
        }
    }
    JOINT rHip
    {
        OFFSET  -0.100000  -0.051395   0.000000
        CHANNELS 3 Xrotation Yrotation Zrotation
        JOINT rKnee
        {
            OFFSET   0.000000  -0.410000   0.000000
            CHANNELS 3 Xrotation Yrotation Zrotation
            JOINT rAnkle
            {
                OFFSET   0.000000  -0.390000   0.000000
                CHANNELS 3 Xrotation Yrotation Zrotation
                JOINT rToeJoint
                {
                    OFFSET   0.000000  -0.050000   0.130000
                    CHANNELS 3 Xrotation Yrotation Zrotation
                    End Site
                    {
                        OFFSET  -0.010000   0.002000   0.060000
                    }
                }
            }
        }
    }
    JOINT lHip
    {
        OFFSET   0.100000  -0.051395   0.000000
        CHANNELS 3 Xrotation Yrotation Zrotation
        JOINT lKnee
        {
            OFFSET   0.000000  -0.410000   0.000000
            CHANNELS 3 Xrotation Yrotation Zrotation
            JOINT lAnkle
            {
                OFFSET   0.000000  -0.390000   0.000000
                CHANNELS 3 Xrotation Yrotation Zrotation
                JOINT lToeJoint
                {
                    OFFSET   0.000000  -0.050000   0.130000
                    CHANNELS 3 Xrotation Yrotation Zrotation
                    End Site
                    {
                        OFFSET   0.010000   0.002000   0.060000
                    }
                }
            }
        }
    }
}
MOTION
Frames: 8
Frame Time:   0.008333
 -2.338101   0.734231   3.936462 -10.427743  31.023989  -0.092562   4.306431  -2.414750  -2.032557   2.691603  -6.884658   1.921954   0.845586  -5.103817   2.093239   2.050460  -2.565594   0.660941   6.010352  -9.853453  29.514473   0.018725  41.254805  -0.010611   0.463964   5.152950  -8.535059   2.295427  -9.816199  -4.968713  -0.827176 -24.889268 -42.060724   0.008584 -68.527200   0.019355  -0.581500  -4.725368   4.064028 -19.830570  -6.867481 -30.224682  54.234085  -0.004493  -0.002036 -19.850009  -9.639337   1.996601   0.190486  -0.000162  -0.000035 -29.717149  -1.881039  36.550925  65.991949   0.001574  -0.000211 -26.108393  -1.649265  -8.263367   2.787329   0.000603   0.000072
 -2.335763   0.735087   3.934176 -10.508357  31.049252  -0.042677   4.452369  -2.256850  -2.049265   2.826066  -6.898810   2.046470   0.867518  -5.079904   2.090759   2.101322  -2.535299   0.767300   6.549191  -9.835074  30.223259   0.023289  41.901912  -0.014808   0.568696   5.133774  -8.616998   2.233457  -9.928521  -4.961973  -1.027926 -24.475799 -42.280417   0.008780 -68.173517   0.018077  -0.557039  -4.548816   4.140422 -19.569130  -6.752774 -30.291997  53.700418  -0.004587  -0.001976 -19.132679  -9.671845   2.030259   0.231991  -0.000060   0.000006 -29.782526  -1.774550  36.319550  66.132431   0.001563  -0.000315 -26.188463  -1.656964  -8.107202   2.754737   0.000449   0.000060
 -2.333718   0.735806   3.932033 -10.571721  31.042562   0.043270   4.583596  -2.101274  -2.156866   2.953354  -6.906222   2.156327   0.899291  -5.055088   2.080807   2.164329  -2.516946   0.912413   7.077144  -9.806980  30.943693   0.026551  42.519058  -0.017740   0.688712   5.198976  -8.537348   2.150039 -10.017254  -4.895685  -1.225024 -24.076934 -42.446678   0.009024 -67.849429   0.016871  -0.533645  -4.395619   4.281684 -19.300884  -6.728733 -30.234864  53.015133  -0.003890  -0.002406 -18.102067  -9.580443   2.063671   0.233639  -0.000047   0.000008 -29.846933  -1.634662  36.075144  66.252060   0.001482  -0.000379 -26.253168  -1.652126  -7.958788   2.726578   0.000334   0.000049
 -2.331490   0.736720   3.929706 -10.635299  31.052537   0.074206   4.724384  -1.972762  -2.169183   3.083175  -6.925849   2.277291   0.928044  -5.031946   2.061222   2.222440  -2.497653   1.063157   7.569667  -9.774062  31.617533   0.028643  43.089868  -0.019572   0.802749   5.254557  -8.431640   2.058272 -10.115800  -4.857296  -1.421823 -23.710155 -42.606385   0.008731 -67.545744   0.015319  -0.511169  -4.249894   4.467750 -19.076407  -6.607360 -30.287241  52.531804  -0.003941  -0.002225 -17.530908  -9.691781   2.055155   0.337832   0.000150   0.000011 -29.904844  -1.535838  35.847397  66.363332   0.001408  -0.000442 -26.310099  -1.630743  -7.811386   2.695488   0.000234   0.000041
 -2.329270   0.737723   3.927375 -10.695019  31.056014   0.078715   4.858442  -1.857889  -2.173450   3.210809  -6.948418   2.417532   0.958929  -5.010190   2.047202   2.279311  -2.482889   1.221008   8.034460  -9.738098  32.261643   0.029681  43.622568  -0.020448   0.911489   5.305490  -8.295318   1.968034 -10.208297  -4.810870  -1.606868 -23.368621 -42.749378   0.008207 -67.264985   0.013679  -0.489659  -4.120977   4.651831 -18.868774  -6.513381 -30.331800  52.030038  -0.003949  -0.001965 -16.847495  -9.711241   2.065517   0.371835   0.000179   0.000026 -29.957462  -1.435893  35.646733  66.454455   0.001309  -0.000466 -26.356124  -1.611887  -7.671429   2.663664   0.000151   0.000035
 -2.327090   0.738722   3.925072 -10.746264  31.048895   0.073860   4.981541  -1.754408  -2.183701   3.328576  -6.972437   2.558796   0.989349  -4.989900   2.034941   2.335185  -2.473843   1.379359   8.472749  -9.701301  32.873366   0.029784  44.119472  -0.020542   1.015012   5.352659  -8.138404   1.879454 -10.291735  -4.754668  -1.780028 -23.047853 -42.873980   0.007611 -67.004700   0.012109  -0.468833  -4.006000   4.834477 -18.672066  -6.434883 -30.370709  51.511841  -0.003906  -0.001700 -16.148176  -9.719694   2.068899   0.404539   0.000199   0.000035 -30.010799  -1.331067  35.458522  66.537354   0.001208  -0.000475 -26.396902  -1.590587  -7.541077   2.631474   0.000084   0.000030
 -2.324974   0.739666   3.922807 -10.791222  31.030443   0.065130   5.094912  -1.661041  -2.200687   3.435641  -6.997533   2.693789   1.018227  -4.971010   2.023141   2.389573  -2.469808   1.532671   8.884881  -9.664803  33.449840   0.029130  44.582664  -0.020043   1.113411   5.395043  -7.973331   1.792401 -10.367027  -4.691887  -1.942526 -22.746197 -42.982157   0.006995 -66.762766   0.010659  -0.448796  -3.901125   5.019668 -18.486206  -6.365636 -30.406981  50.989309  -0.003809  -0.001436 -15.463399  -9.726979   2.065859   0.435386   0.000210   0.000037 -30.065958  -1.223672  35.281070  66.620831   0.001123  -0.000482 -26.436452  -1.566057  -7.421206   2.599267   0.000029   0.000026
 -2.323263   0.740229   3.920562 -10.912496  30.975017   0.083091   5.324713  -1.571976  -2.242911   3.542480  -6.997347   2.830592   1.071313  -4.919339   1.996091   2.447843  -2.478891   1.600307   9.439666  -9.496295  34.100760   0.028566  45.005175  -0.020286   1.254296   5.486186  -7.884660   1.689623 -10.483674  -4.546772  -2.210112 -22.425073 -43.022526   0.006559 -66.575924   0.009330  -0.439401  -3.764166   5.175006 -18.318502  -6.186733 -30.416122  50.658237  -0.003513  -0.001273 -14.784844  -9.646567   2.033867   0.571306   0.000446   0.000202 -30.067945  -1.154423  35.135025  66.763069   0.001111  -0.000580 -26.480701  -1.424786  -7.178018   2.601225   0.000023   0.000022
